<svg width="253" height="72" viewBox="0 0 253 72" fill="none" xmlns="http://www.w3.org/2000/svg">
<g opacity="0.5">
<path d="M247.616 10.7481C250.584 10.7481 252.99 8.342 252.99 5.37399C252.99 2.40599 250.584 0 247.616 0C244.648 0 242.242 2.40599 242.242 5.37399C242.242 8.342 244.648 10.7481 247.616 10.7481Z" fill="#EA4E24"/>
<path d="M193.795 5.37399C193.795 2.40543 196.2 0 199.169 0C202.138 0 204.543 2.40543 204.543 5.37399C204.543 8.34255 202.138 10.7481 199.169 10.7481C196.2 10.7481 193.795 8.34255 193.795 5.37399Z" fill="#EA4E24"/>
<path d="M150.722 10.7481C153.69 10.7481 156.096 8.342 156.096 5.37399C156.096 2.40599 153.69 0 150.722 0C147.754 0 145.348 2.40599 145.348 5.37399C145.348 8.342 147.754 10.7481 150.722 10.7481Z" fill="#EA4E24"/>
<path d="M102.271 10.7481C105.239 10.7481 107.645 8.342 107.645 5.37399C107.645 2.40599 105.239 0 102.271 0C99.3025 0 96.8965 2.40599 96.8965 5.37399C96.8965 8.342 99.3025 10.7481 102.271 10.7481Z" fill="#EA4E24"/>
<path d="M53.8242 10.7481C56.7922 10.7481 59.1983 8.342 59.1983 5.37399C59.1983 2.40599 56.7922 0 53.8242 0C50.8562 0 48.4502 2.40599 48.4502 5.37399C48.4502 8.342 50.8562 10.7481 53.8242 10.7481Z" fill="#EA4E24"/>
<path d="M5.37405 10.7481C8.34205 10.7481 10.7481 8.342 10.7481 5.37399C10.7481 2.40599 8.34205 0 5.37405 0C2.40604 0 0 2.40599 0 5.37399C0 8.342 2.40604 10.7481 5.37405 10.7481Z" fill="#EA4E24"/>
<path d="M247.616 41.3721C250.584 41.3721 252.99 38.966 252.99 35.998C252.99 33.03 250.584 30.624 247.616 30.624C244.648 30.624 242.242 33.03 242.242 35.998C242.242 38.966 244.648 41.3721 247.616 41.3721Z" fill="#EA4E24"/>
<path d="M193.795 35.998C193.795 33.0295 196.2 30.624 199.169 30.624C202.138 30.624 204.543 33.0295 204.543 35.998C204.543 38.9666 202.138 41.3721 199.169 41.3721C196.2 41.3721 193.795 38.9666 193.795 35.998Z" fill="#EA4E24"/>
<path d="M150.722 41.3721C153.69 41.3721 156.096 38.966 156.096 35.998C156.096 33.03 153.69 30.624 150.722 30.624C147.754 30.624 145.348 33.03 145.348 35.998C145.348 38.966 147.754 41.3721 150.722 41.3721Z" fill="#EA4E24"/>
<path d="M102.271 41.3721C105.239 41.3721 107.645 38.966 107.645 35.998C107.645 33.03 105.239 30.624 102.271 30.624C99.3025 30.624 96.8965 33.03 96.8965 35.998C96.8965 38.966 99.3025 41.3721 102.271 41.3721Z" fill="#EA4E24"/>
<path d="M53.8242 41.3721C56.7922 41.3721 59.1983 38.966 59.1983 35.998C59.1983 33.03 56.7922 30.624 53.8242 30.624C50.8562 30.624 48.4502 33.03 48.4502 35.998C48.4502 38.966 50.8562 41.3721 53.8242 41.3721Z" fill="#EA4E24"/>
<path d="M5.37405 41.3721C8.34205 41.3721 10.7481 38.966 10.7481 35.998C10.7481 33.03 8.34205 30.624 5.37405 30.624C2.40604 30.624 0 33.03 0 35.998C0 38.966 2.40604 41.3721 5.37405 41.3721Z" fill="#EA4E24"/>
<path d="M247.616 71.9999C250.584 71.9999 252.99 69.5938 252.99 66.6258C252.99 63.6578 250.584 61.2518 247.616 61.2518C244.648 61.2518 242.242 63.6578 242.242 66.6258C242.242 69.5938 244.648 71.9999 247.616 71.9999Z" fill="#EA4E24"/>
<path d="M193.795 66.6258C193.795 63.6573 196.2 61.2518 199.169 61.2518C202.138 61.2518 204.543 63.6573 204.543 66.6258C204.543 69.5944 202.138 71.9999 199.169 71.9999C196.2 71.9999 193.795 69.5944 193.795 66.6258Z" fill="#EA4E24"/>
<path d="M150.722 71.9999C153.69 71.9999 156.096 69.5938 156.096 66.6258C156.096 63.6578 153.69 61.2518 150.722 61.2518C147.754 61.2518 145.348 63.6578 145.348 66.6258C145.348 69.5938 147.754 71.9999 150.722 71.9999Z" fill="#EA4E24"/>
<path d="M102.271 71.9999C105.239 71.9999 107.645 69.5938 107.645 66.6258C107.645 63.6578 105.239 61.2518 102.271 61.2518C99.3025 61.2518 96.8965 63.6578 96.8965 66.6258C96.8965 69.5938 99.3025 71.9999 102.271 71.9999Z" fill="#EA4E24"/>
<path d="M53.8242 71.9999C56.7922 71.9999 59.1983 69.5938 59.1983 66.6258C59.1983 63.6578 56.7922 61.2518 53.8242 61.2518C50.8562 61.2518 48.4502 63.6578 48.4502 66.6258C48.4502 69.5938 50.8562 71.9999 53.8242 71.9999Z" fill="#EA4E24"/>
<path d="M5.37405 71.9999C8.34205 71.9999 10.7481 69.5938 10.7481 66.6258C10.7481 63.6578 8.34205 61.2518 5.37405 61.2518C2.40604 61.2518 0 63.6578 0 66.6258C0 69.5938 2.40604 71.9999 5.37405 71.9999Z" fill="#EA4E24"/>
</g>
</svg>
