<svg width="24" height="25" viewBox="0 0 24 25" fill="none" xmlns="http://www.w3.org/2000/svg">
<g clip-path="url(#clip0_3054_714)">
<path d="M13.03 2.57028L2.04 0.915057C1.53 0.835765 1.01 0.974526 0.62 1.30161C0.23 1.6386 0 2.12426 0 2.62975V23.5133C0 24.0584 0.45 24.5044 1 24.5044H4.25V19.3009C4.25 18.3395 5.03 17.5664 6 17.5664H8.5C9.47 17.5664 10.25 18.3395 10.25 19.3009V24.5044H14.5V4.28497C14.5 3.43258 13.88 2.70904 13.03 2.57028ZM5.5 15.3363H4C3.586 15.3363 3.25 15.0033 3.25 14.5929C3.25 14.1826 3.586 13.8496 4 13.8496H5.5C5.914 13.8496 6.25 14.1826 6.25 14.5929C6.25 15.0033 5.914 15.3363 5.5 15.3363ZM5.5 12.3628H4C3.586 12.3628 3.25 12.0298 3.25 11.6195C3.25 11.2091 3.586 10.8761 4 10.8761H5.5C5.914 10.8761 6.25 11.2091 6.25 11.6195C6.25 12.0298 5.914 12.3628 5.5 12.3628ZM5.5 9.38939H4C3.586 9.38939 3.25 9.05637 3.25 8.64603C3.25 8.23569 3.586 7.90267 4 7.90267H5.5C5.914 7.90267 6.25 8.23569 6.25 8.64603C6.25 9.05637 5.914 9.38939 5.5 9.38939ZM5.5 6.41594H4C3.586 6.41594 3.25 6.08292 3.25 5.67258C3.25 5.26224 3.586 4.92922 4 4.92922H5.5C5.914 4.92922 6.25 5.26224 6.25 5.67258C6.25 6.08292 5.914 6.41594 5.5 6.41594ZM10.5 15.3363H9C8.586 15.3363 8.25 15.0033 8.25 14.5929C8.25 14.1826 8.586 13.8496 9 13.8496H10.5C10.914 13.8496 11.25 14.1826 11.25 14.5929C11.25 15.0033 10.914 15.3363 10.5 15.3363ZM10.5 12.3628H9C8.586 12.3628 8.25 12.0298 8.25 11.6195C8.25 11.2091 8.586 10.8761 9 10.8761H10.5C10.914 10.8761 11.25 11.2091 11.25 11.6195C11.25 12.0298 10.914 12.3628 10.5 12.3628ZM10.5 9.38939H9C8.586 9.38939 8.25 9.05637 8.25 8.64603C8.25 8.23569 8.586 7.90267 9 7.90267H10.5C10.914 7.90267 11.25 8.23569 11.25 8.64603C11.25 9.05637 10.914 9.38939 10.5 9.38939ZM10.5 6.41594H9C8.586 6.41594 8.25 6.08292 8.25 5.67258C8.25 5.26224 8.586 4.92922 9 4.92922H10.5C10.914 4.92922 11.25 5.26224 11.25 5.67258C11.25 6.08292 10.914 6.41594 10.5 6.41594Z" fill="#4DAE45"/>
<path d="M22.62 11.4629L15.5 9.98505V24.5044H22.25C23.215 24.5044 24 23.7264 24 22.7699V13.1577C24 12.339 23.437 11.6423 22.62 11.4629ZM20.25 21.531H18.75C18.336 21.531 18 21.1979 18 20.7876C18 20.3773 18.336 20.0442 18.75 20.0442H20.25C20.664 20.0442 21 20.3773 21 20.7876C21 21.1979 20.664 21.531 20.25 21.531ZM20.25 18.5575H18.75C18.336 18.5575 18 18.2245 18 17.8141C18 17.4038 18.336 17.0708 18.75 17.0708H20.25C20.664 17.0708 21 17.4038 21 17.8141C21 18.2245 20.664 18.5575 20.25 18.5575ZM20.25 15.5841H18.75C18.336 15.5841 18 15.251 18 14.8407C18 14.4304 18.336 14.0973 18.75 14.0973H20.25C20.664 14.0973 21 14.4304 21 14.8407C21 15.251 20.664 15.5841 20.25 15.5841Z" fill="#4DAE45"/>
</g>
<defs>
<clipPath id="clip0_3054_714">
<rect width="24" height="23.7876" fill="white" transform="translate(0 0.716797)"/>
</clipPath>
</defs>
</svg>
