<svg width="18" height="19" viewBox="0 0 18 19" fill="none" xmlns="http://www.w3.org/2000/svg">
<g clip-path="url(#clip0_3054_710)">
<path d="M9 0.362854C5.2785 0.362854 2.25 3.38537 2.25 7.10144C2.25 12.3815 8.3655 17.8334 8.62575 18.0623C8.733 18.1567 8.8665 18.2036 9 18.2036C9.1335 18.2036 9.267 18.1567 9.37425 18.0631C9.6345 17.8334 15.75 12.3815 15.75 7.10144C15.75 3.38537 12.7215 0.362854 9 0.362854ZM9 10.7699C6.93225 10.7699 5.25 9.10257 5.25 7.05312C5.25 5.00367 6.93225 3.33631 9 3.33631C11.0677 3.33631 12.75 5.00367 12.75 7.05312C12.75 9.10257 11.0677 10.7699 9 10.7699Z" fill="#757575"/>
</g>
<defs>
<clipPath id="clip0_3054_710">
<rect width="18" height="17.8407" fill="white" transform="translate(0 0.362854)"/>
</clipPath>
</defs>
</svg>
