<svg width="40" height="40" viewBox="0 0 40 40" fill="none" xmlns="http://www.w3.org/2000/svg">
<circle cx="20" cy="20" r="20" transform="rotate(180 20 20)" fill="#4DAE45" fill-opacity="0.05"/>
<circle cx="20" cy="20" r="19.6" transform="rotate(180 20 20)" stroke="#4DAE45" stroke-opacity="0.5" stroke-width="0.8"/>
<path d="M22.7811 27.5791C22.914 27.4465 23.0194 27.289 23.0913 27.1157C23.1632 26.9423 23.2002 26.7565 23.2002 26.5688C23.2002 26.3812 23.1632 26.1953 23.0913 26.022C23.0194 25.8486 22.914 25.6912 22.7811 25.5586L17.2213 19.9988L22.7811 14.4389C23.0491 14.171 23.1996 13.8076 23.1996 13.4287C23.1996 13.0498 23.0491 12.6864 22.7811 12.4184C22.5132 12.1505 22.1498 12 21.7709 12C21.392 12 21.0286 12.1505 20.7607 12.4184L14.1834 18.9957C14.0506 19.1283 13.9452 19.2857 13.8733 19.4591C13.8014 19.6324 13.7644 19.8182 13.7644 20.0059C13.7644 20.1936 13.8014 20.3794 13.8733 20.5528C13.9452 20.7261 14.0506 20.8836 14.1834 21.0161L20.7607 27.5934C21.3052 28.1379 22.2223 28.1379 22.7811 27.5791Z" fill="#4DAE45"/>
</svg>
