<svg width="40" height="40" viewBox="0 0 40 40" fill="none" xmlns="http://www.w3.org/2000/svg">
<circle cx="20" cy="20" r="20" fill="#4DAE45" fill-opacity="0.05"/>
<circle cx="20" cy="20" r="19.6" stroke="#4DAE45" stroke-opacity="0.5" stroke-width="0.8"/>
<path d="M17.2189 12.4209C17.086 12.5535 16.9806 12.711 16.9087 12.8843C16.8368 13.0577 16.7998 13.2435 16.7998 13.4312C16.7998 13.6188 16.8368 13.8047 16.9087 13.978C16.9806 14.1514 17.086 14.3088 17.2189 14.4414L22.7787 20.0012L17.2189 25.5611C16.9509 25.829 16.8004 26.1924 16.8004 26.5713C16.8004 26.9502 16.9509 27.3136 17.2189 27.5816C17.4868 27.8495 17.8502 28 18.2291 28C18.608 28 18.9714 27.8495 19.2393 27.5816L25.8166 21.0043C25.9494 20.8717 26.0548 20.7143 26.1267 20.5409C26.1986 20.3676 26.2356 20.1818 26.2356 19.9941C26.2356 19.8064 26.1986 19.6206 26.1267 19.4472C26.0548 19.2739 25.9494 19.1164 25.8166 18.9839L19.2393 12.4066C18.6948 11.8621 17.7777 11.8621 17.2189 12.4209Z" fill="#4DAE45"/>
</svg>
