<svg width="20" height="25" viewBox="0 0 20 25" fill="none" xmlns="http://www.w3.org/2000/svg">
<g clip-path="url(#clip0_3831_4783)">
<path d="M10.5775 2.5701L1.74622 0.914874C1.3364 0.835582 0.918541 0.974343 0.605148 1.30142C0.291755 1.63841 0.106934 2.12408 0.106934 2.62956V23.5131C0.106934 24.0582 0.468541 24.5043 0.910505 24.5043H3.52211V19.3007C3.52211 18.3393 4.1489 17.5662 4.92836 17.5662H6.93729C7.71676 17.5662 8.34354 18.3393 8.34354 19.3007V24.5043H11.7587V4.28479C11.7587 3.4324 11.2605 2.70886 10.5775 2.5701ZM4.52658 15.3361H3.32122C2.98854 15.3361 2.71854 15.0031 2.71854 14.5928C2.71854 14.1824 2.98854 13.8494 3.32122 13.8494H4.52658C4.85926 13.8494 5.12926 14.1824 5.12926 14.5928C5.12926 15.0031 4.85926 15.3361 4.52658 15.3361ZM4.52658 12.3627H3.32122C2.98854 12.3627 2.71854 12.0296 2.71854 11.6193C2.71854 11.209 2.98854 10.8759 3.32122 10.8759H4.52658C4.85926 10.8759 5.12926 11.209 5.12926 11.6193C5.12926 12.0296 4.85926 12.3627 4.52658 12.3627ZM4.52658 9.38921H3.32122C2.98854 9.38921 2.71854 9.05618 2.71854 8.64585C2.71854 8.23551 2.98854 7.90248 3.32122 7.90248H4.52658C4.85926 7.90248 5.12926 8.23551 5.12926 8.64585C5.12926 9.05618 4.85926 9.38921 4.52658 9.38921ZM4.52658 6.41576H3.32122C2.98854 6.41576 2.71854 6.08273 2.71854 5.6724C2.71854 5.26206 2.98854 4.92903 3.32122 4.92903H4.52658C4.85926 4.92903 5.12926 5.26206 5.12926 5.6724C5.12926 6.08273 4.85926 6.41576 4.52658 6.41576ZM8.54443 15.3361H7.33908C7.0064 15.3361 6.7364 15.0031 6.7364 14.5928C6.7364 14.1824 7.0064 13.8494 7.33908 13.8494H8.54443C8.87711 13.8494 9.14711 14.1824 9.14711 14.5928C9.14711 15.0031 8.87711 15.3361 8.54443 15.3361ZM8.54443 12.3627H7.33908C7.0064 12.3627 6.7364 12.0296 6.7364 11.6193C6.7364 11.209 7.0064 10.8759 7.33908 10.8759H8.54443C8.87711 10.8759 9.14711 11.209 9.14711 11.6193C9.14711 12.0296 8.87711 12.3627 8.54443 12.3627ZM8.54443 9.38921H7.33908C7.0064 9.38921 6.7364 9.05618 6.7364 8.64585C6.7364 8.23551 7.0064 7.90248 7.33908 7.90248H8.54443C8.87711 7.90248 9.14711 8.23551 9.14711 8.64585C9.14711 9.05618 8.87711 9.38921 8.54443 9.38921ZM8.54443 6.41576H7.33908C7.0064 6.41576 6.7364 6.08273 6.7364 5.6724C6.7364 5.26206 7.0064 4.92903 7.33908 4.92903H8.54443C8.87711 4.92903 9.14711 5.26206 9.14711 5.6724C9.14711 6.08273 8.87711 6.41576 8.54443 6.41576Z" fill="#EA4E24"/>
<path d="M18.2839 11.4627L12.5625 9.98486V24.5042H17.9866C18.7621 24.5042 19.3929 23.7262 19.3929 22.7697V13.1575C19.3929 12.3388 18.9404 11.6421 18.2839 11.4627ZM16.3795 21.5308H15.1741C14.8414 21.5308 14.5714 21.1978 14.5714 20.7874C14.5714 20.3771 14.8414 20.0441 15.1741 20.0441H16.3795C16.7121 20.0441 16.9821 20.3771 16.9821 20.7874C16.9821 21.1978 16.7121 21.5308 16.3795 21.5308ZM16.3795 18.5573H15.1741C14.8414 18.5573 14.5714 18.2243 14.5714 17.814C14.5714 17.4036 14.8414 17.0706 15.1741 17.0706H16.3795C16.7121 17.0706 16.9821 17.4036 16.9821 17.814C16.9821 18.2243 16.7121 18.5573 16.3795 18.5573ZM16.3795 15.5839H15.1741C14.8414 15.5839 14.5714 15.2508 14.5714 14.8405C14.5714 14.4302 14.8414 14.0971 15.1741 14.0971H16.3795C16.7121 14.0971 16.9821 14.4302 16.9821 14.8405C16.9821 15.2508 16.7121 15.5839 16.3795 15.5839Z" fill="#EA4E24"/>
</g>
<defs>
<clipPath id="clip0_3831_4783">
<rect width="19.2857" height="23.7876" fill="white" transform="translate(0.106934 0.716797)"/>
</clipPath>
</defs>
</svg>
