<svg width="16" height="16" viewBox="0 0 16 16" fill="none" xmlns="http://www.w3.org/2000/svg">
<path d="M7.68254 12.8729L3.95833 15.222C3.7938 15.3316 3.6218 15.3786 3.44232 15.3629C3.26284 15.3473 3.1058 15.2846 2.97119 15.175C2.83658 15.0654 2.73188 14.9282 2.65709 14.7634C2.58231 14.5987 2.56735 14.4148 2.61222 14.2119L3.59937 9.77213L0.301416 6.78881C0.151849 6.64787 0.0585188 6.48719 0.0214262 6.30678C-0.0156664 6.12638 -0.00459852 5.95035 0.05463 5.77871C0.114457 5.60645 0.204197 5.4655 0.32385 5.35588C0.443504 5.24626 0.608028 5.17579 0.817421 5.14446L5.16982 4.74512L6.85245 0.563777C6.92723 0.375852 7.0433 0.234907 7.20064 0.140944C7.35798 0.0469815 7.51862 0 7.68254 0C7.84707 0 8.0077 0.0469815 8.16445 0.140944C8.3212 0.234907 8.43726 0.375852 8.51264 0.563777L10.1953 4.74512L14.5477 5.14446C14.7571 5.17579 14.9216 5.24626 15.0412 5.35588C15.1609 5.4655 15.2506 5.60645 15.3105 5.77871C15.3703 5.95098 15.3817 6.12732 15.3446 6.30772C15.3075 6.48813 15.2138 6.6485 15.0637 6.78881L11.7657 9.77213L12.7529 14.2119C12.7977 14.4155 12.7828 14.5996 12.708 14.7644C12.6332 14.9291 12.5285 15.066 12.3939 15.175C12.2593 15.2846 12.1022 15.3473 11.9228 15.3629C11.7433 15.3786 11.5713 15.3316 11.4068 15.222L7.68254 12.8729Z" fill="url(#paint0_linear_3054_705)"/>
<defs>
<linearGradient id="paint0_linear_3054_705" x1="7.68293" y1="0" x2="7.68293" y2="15.3659" gradientUnits="userSpaceOnUse">
<stop stop-color="#EEE622"/>
<stop offset="1" stop-color="#FFB141"/>
</linearGradient>
</defs>
</svg>
