<svg width="30" height="30" viewBox="0 0 30 30" fill="none" xmlns="http://www.w3.org/2000/svg">
<path fill-rule="evenodd" clip-rule="evenodd" d="M15 30C23.2843 30 30 23.2843 30 15C30 6.71573 23.2843 0 15 0C6.71573 0 0 6.71573 0 15C0 23.2843 6.71573 30 15 30ZM7.80037 7.5H22.2004C23.1904 7.5 24.0004 8.34375 24.0004 9.375V20.625C24.0004 21.6562 23.1904 22.5 22.2004 22.5H7.80037C6.81037 22.5 6.00037 21.6562 6.00037 20.625V9.375C6.00037 8.34375 6.81037 7.5 7.80037 7.5ZM15.9544 15.3188L21.8404 11.4844C21.9306 11.4316 22.0096 11.3603 22.0727 11.2748C22.1357 11.1893 22.1814 11.0914 22.2071 10.9869C22.2327 10.8825 22.2377 10.7737 22.2218 10.6672C22.2059 10.5606 22.1695 10.4586 22.1146 10.3672C22.0598 10.2757 21.9877 10.1969 21.9027 10.1353C21.8178 10.0738 21.7217 10.0308 21.6203 10.009C21.519 9.98727 21.4144 9.98716 21.313 10.0087C21.2116 10.0302 21.1155 10.073 21.0304 10.1344L15.0004 14.0625L8.97037 10.1344C8.88528 10.073 8.78913 10.0302 8.68773 10.0087C8.58632 9.98716 8.48177 9.98727 8.38041 10.009C8.27905 10.0308 8.18298 10.0738 8.09802 10.1353C8.01306 10.1969 7.94097 10.2757 7.88612 10.3672C7.83127 10.4586 7.7948 10.5606 7.77891 10.6672C7.76302 10.7737 7.76805 10.8825 7.79368 10.9869C7.81932 11.0914 7.86504 11.1893 7.92807 11.2748C7.99109 11.3603 8.07012 11.4316 8.16037 11.4844L14.0464 15.3188C14.6314 15.7031 15.3694 15.7031 15.9544 15.3188Z" fill="#678765"/>
</svg>
