<svg width="30" height="30" viewBox="0 0 30 30" fill="none" xmlns="http://www.w3.org/2000/svg">
<path fill-rule="evenodd" clip-rule="evenodd" d="M15 30C23.2843 30 30 23.2843 30 15C30 6.71573 23.2843 0 15 0C6.71573 0 0 6.71573 0 15C0 23.2843 6.71573 30 15 30ZM16.3858 21.3017C18.0869 22.1006 19.8333 22.5 21.625 22.5C21.875 22.5 22.0833 22.4167 22.25 22.25C22.4167 22.0833 22.5 21.875 22.5 21.625V18.25C22.5 18.0561 22.4375 17.8861 22.3125 17.74C22.1875 17.5939 22.0278 17.5 21.8333 17.4583L18.9583 16.875C18.7644 16.8478 18.5667 16.8653 18.365 16.9275C18.1633 16.9897 18 17.0833 17.875 17.2083L15.9167 19.1667C14.8611 18.5278 13.8958 17.7708 13.0208 16.8958C12.1458 16.0208 11.4167 15.0833 10.8333 14.0833L12.8333 12.0417C12.9578 11.9172 13.0375 11.775 13.0725 11.615C13.1075 11.455 13.1111 11.2778 13.0833 11.0833L12.5417 8.16667C12.5139 7.97222 12.4236 7.8125 12.2708 7.6875C12.1181 7.5625 11.9444 7.5 11.75 7.5H8.375C8.125 7.5 7.91667 7.58333 7.75 7.75C7.58333 7.91667 7.5 8.125 7.5 8.375C7.50056 10.1661 7.9 11.9125 8.69833 13.6142C9.49667 15.3158 10.5522 16.8228 11.865 18.135C13.1778 19.4472 14.6847 20.5028 16.3858 21.3017Z" fill="#678765"/>
</svg>
